<?xml version="1.0" encoding="UTF-8" standalone="no"?>
<!DOCTYPE svg PUBLIC "-//W3C//DTD SVG 1.1//EN" "http://www.w3.org/Graphics/SVG/1.1/DTD/svg11.dtd">
<svg width="100%" height="100%" viewBox="0 0 100 100" version="1.1" xmlns="http://www.w3.org/2000/svg" xmlns:xlink="http://www.w3.org/1999/xlink" xml:space="preserve" xmlns:serif="http://www.serif.com/" style="fill-rule:evenodd;clip-rule:evenodd;stroke-linejoin:round;stroke-miterlimit:2;">
    <g transform="matrix(1.54531,0,0,1.54531,-33.953,-36.9061)">
        <path d="M23.399,60.448C26.406,59.65 29.44,59.352 32.554,59.711C41.555,60.748 49.364,68.122 50.848,77.058C51.458,80.729 51.228,84.616 50.285,87.074C49.307,84.966 48.424,82.73 47.276,80.64C42.077,71.178 34.373,64.584 24.25,60.823C23.979,60.722 23.684,60.69 23.399,60.625L23.399,60.448ZM58.702,25.323C59.459,27.212 60.068,29.177 60.997,30.978C66.19,41.047 74.14,48.029 84.789,51.922C84.927,51.972 85.06,52.037 85.195,52.095C85.205,52.182 85.216,52.269 85.226,52.356C83.544,52.607 81.868,53.006 80.177,53.087C68.547,53.641 58.858,45.262 57.692,33.682C57.407,30.849 57.784,28.064 58.523,25.324C58.583,25.323 58.643,25.323 58.702,25.323ZM23.399,52.068C25.988,50.924 28.707,50.004 31.144,48.596C40.103,43.419 46.33,35.877 49.927,26.171C50.028,25.899 50.073,25.606 50.144,25.323L50.322,25.323C50.614,27.607 51.145,29.889 51.158,32.175C51.216,42.608 42.755,51.88 32.378,52.976C29.477,53.282 26.637,53.094 23.834,52.294C23.696,52.254 23.544,52.262 23.399,52.247L23.399,52.068ZM58.608,87.154C56.599,81.472 57.278,72.504 63.766,65.908C69.985,59.585 78.801,58.368 85.256,60.521C72.261,65.331 63.4,74.197 58.608,87.154ZM62.159,56.333C62.17,60.622 58.713,64.081 54.41,64.084C50.131,64.087 46.618,60.588 46.632,56.335C46.646,52.069 50.152,48.563 54.406,48.561C58.676,48.558 62.148,52.039 62.159,56.333Z" style="fill:rgb(168,21,36);fill-rule:nonzero;"/>
    </g>
</svg>
